<?xml version="1.0" encoding="utf-8"?>
<!-- Generator: Adobe Illustrator 16.0.3, SVG Export Plug-In . SVG Version: 6.00 Build 0)  -->
<!DOCTYPE svg [
	<!ENTITY ns_extend "http://ns.adobe.com/Extensibility/1.0/">
	<!ENTITY ns_ai "http://ns.adobe.com/AdobeIllustrator/10.0/">
	<!ENTITY ns_graphs "http://ns.adobe.com/Graphs/1.0/">
	<!ENTITY ns_vars "http://ns.adobe.com/Variables/1.0/">
	<!ENTITY ns_imrep "http://ns.adobe.com/ImageReplacement/1.0/">
	<!ENTITY ns_sfw "http://ns.adobe.com/SaveForWeb/1.0/">
	<!ENTITY ns_custom "http://ns.adobe.com/GenericCustomNamespace/1.0/">
	<!ENTITY ns_adobe_xpath "http://ns.adobe.com/XPath/1.0/">
]>
<svg version="1.2" baseProfile="tiny" id="Ebene_1" xmlns:x="&ns_extend;" xmlns:i="&ns_ai;" xmlns:graph="&ns_graphs;"
	 xmlns="http://www.w3.org/2000/svg" xmlns:xlink="http://www.w3.org/1999/xlink" x="0px" y="0px" width="104px" height="104px"
	 viewBox="0 0 104 104" xml:space="preserve">
<metadata>
	<sfw  xmlns="&ns_sfw;">
		<slices></slices>
		<sliceSourceBounds  width="104" height="104" y="75.5" x="74.5" bottomLeftOrigin="true"></sliceSourceBounds>
	</sfw>
</metadata>
<g>
	<g>
		<path fill="#00F3FF" d="M104,52c0,28.728-23.273,52-52,52S0,80.728,0,52S23.273,0,52,0S104,23.272,104,52z"/>
		<path fill="#BEBEBE" d="M102.32,52c0,27.802-22.521,50.32-50.32,50.32C24.202,102.32,1.677,79.802,1.677,52S24.202,1.68,52,1.68
			C79.8,1.68,102.32,24.198,102.32,52z"/>
		<path fill="#505050" d="M98.965,52c0,25.929-21.02,46.965-46.965,46.965C26.052,98.965,5.033,77.929,5.033,52
			S26.052,5.035,52,5.035C77.945,5.035,98.965,26.071,98.965,52z"/>
	</g>
	<path fill="#00F3FF" d="M52,17.335c-19.158,0-34.667,15.506-34.667,34.665S32.842,86.665,52,86.665
		c19.16,0,34.665-15.506,34.665-34.665S71.16,17.335,52,17.335z M52,78.578c-14.663,0-26.576-11.887-26.576-26.578
		S37.337,25.422,52,25.422c14.66,0,26.578,11.887,26.578,26.578S66.66,78.578,52,78.578z"/>
</g>
</svg>
